<svg width="100" height="100" viewBox="0 0 100 100" fill="none" xmlns="http://www.w3.org/2000/svg">
<!-- Space Background -->
<rect width="100" height="100" fill="#000080"/>
<!-- Stars -->
<circle cx="20" cy="20" r="1" fill="#FFFFFF"/>
<circle cx="80" cy="15" r="1" fill="#FFFFFF"/>
<circle cx="15" cy="40" r="1" fill="#FFFFFF"/>
<circle cx="85" cy="35" r="1" fill="#FFFFFF"/>
<circle cx="30" cy="10" r="1" fill="#FFFFFF"/>
<circle cx="70" cy="25" r="1" fill="#FFFFFF"/>
<circle cx="10" cy="60" r="1" fill="#FFFFFF"/>
<circle cx="90" cy="70" r="1" fill="#FFFFFF"/>
<!-- Earth -->
<circle cx="50" cy="80" r="25" fill="#4169E1"/>
<path d="M30 80 Q50 60 70 80" fill="#32CD32"/>
<!-- Space Station -->
<rect x="40" y="30" width="20" height="15" fill="#C0C0C0" rx="2"/>
<rect x="35" y="35" width="30" height="5" fill="#E0E0E0"/>
<circle cx="50" cy="37" r="2" fill="#87CEEB"/>
<!-- Solar Panels -->
<rect x="25" y="32" width="15" height="8" fill="#000080"/>
<rect x="60" y="32" width="15" height="8" fill="#000080"/>
<!-- Astronaut -->
<circle cx="50" cy="25" r="8" fill="#FFD700"/>
<rect x="42" y="33" width="16" height="12" fill="#C0C0C0" rx="2"/>
<circle cx="50" cy="30" r="6" fill="#000080"/>
</svg>
