<svg width="100" height="100" viewBox="0 0 100 100" fill="none" xmlns="http://www.w3.org/2000/svg">
<!-- Background -->
<circle cx="50" cy="50" r="50" fill="#000080"/>
<!-- Space Helmet -->
<circle cx="50" cy="50" r="40" fill="#C0C0C0" stroke="#E0E0E0" stroke-width="3"/>
<!-- Face -->
<circle cx="50" cy="50" r="30" fill="#FDBCB4"/>
<!-- Eyes -->
<circle cx="42" cy="45" r="3" fill="#000000"/>
<circle cx="58" cy="45" r="3" fill="#000000"/>
<circle cx="42" cy="44" r="1.5" fill="#FFFFFF"/>
<circle cx="58" cy="44" r="1.5" fill="#FFFFFF"/>
<!-- Eyebrows -->
<path d="M37 40 Q42 37 47 40" stroke="#000000" stroke-width="2" fill="none"/>
<path d="M53 40 Q58 37 63 40" stroke="#000000" stroke-width="2" fill="none"/>
<!-- Nose -->
<ellipse cx="50" cy="52" rx="1.5" ry="2" fill="#E6A8A8"/>
<!-- Mouth -->
<path d="M46 56 Q50 59 54 56" stroke="#8B0000" stroke-width="1.5" fill="none"/>
<!-- Helmet Details -->
<rect x="30" y="25" width="40" height="8" fill="#E0E0E0"/>
<circle cx="50" cy="29" r="2" fill="#87CEEB"/>
<!-- Stars -->
<circle cx="20" cy="20" r="1" fill="#FFFFFF"/>
<circle cx="80" cy="15" r="1" fill="#FFFFFF"/>
<circle cx="15" cy="40" r="1" fill="#FFFFFF"/>
<circle cx="85" cy="35" r="1" fill="#FFFFFF"/>
</svg>
