<svg width="100" height="100" viewBox="0 0 100 100" fill="none" xmlns="http://www.w3.org/2000/svg">
<!-- Background -->
<circle cx="50" cy="50" r="50" fill="#F4A460"/>
<!-- Hair -->
<path d="M25 35 Q50 20 75 35 Q75 25 50 15 Q25 25 25 35" fill="#8B4513"/>
<!-- Face -->
<circle cx="50" cy="50" r="35" fill="#FDBCB4"/>
<!-- Eyes -->
<circle cx="40" cy="45" r="4" fill="#000000"/>
<circle cx="60" cy="45" r="4" fill="#000000"/>
<circle cx="40" cy="44" r="2" fill="#FFFFFF"/>
<circle cx="60" cy="44" r="2" fill="#FFFFFF"/>
<!-- Eyebrows -->
<path d="M35 38 Q40 35 45 38" stroke="#8B4513" stroke-width="2" fill="none"/>
<path d="M55 38 Q60 35 65 38" stroke="#8B4513" stroke-width="2" fill="none"/>
<!-- Nose -->
<ellipse cx="50" cy="52" rx="2" ry="3" fill="#E6A8A8"/>
<!-- Mouth -->
<path d="M45 58 Q50 62 55 58" stroke="#8B0000" stroke-width="2" fill="none"/>
<!-- Hat -->
<path d="M20 30 Q50 15 80 30 Q80 25 50 10 Q20 25 20 30" fill="#228B22"/>
<rect x="25" y="25" width="50" height="8" fill="#32CD32"/>
<!-- Sun -->
<circle cx="85" cy="15" r="8" fill="#FFD700"/>
</svg>
