<svg width="100" height="100" viewBox="0 0 100 100" fill="none" xmlns="http://www.w3.org/2000/svg">
<!-- Sky Background -->
<rect width="100" height="100" fill="#87CEEB"/>
<!-- Airplane -->
<path d="M20 50 L80 50 L75 45 L25 45 Z" fill="#FFFFFF"/>
<path d="M25 45 L30 35 L70 35 L75 45 Z" fill="#E0E0E0"/>
<path d="M40 35 L45 25 L55 25 L60 35 Z" fill="#C0C0C0"/>
<!-- Wings -->
<path d="M35 50 L25 60 L30 65 L40 55 Z" fill="#F0F0F0"/>
<path d="M65 50 L75 60 L70 65 L60 55 Z" fill="#F0F0F0"/>
<!-- Tail -->
<path d="M75 45 L85 40 L80 50 L75 50 Z" fill="#E0E0E0"/>
<!-- Windows -->
<circle cx="35" cy="40" r="3" fill="#87CEEB"/>
<circle cx="45" cy="40" r="3" fill="#87CEEB"/>
<circle cx="55" cy="40" r="3" fill="#87CEEB"/>
<circle cx="65" cy="40" r="3" fill="#87CEEB"/>
<!-- Clouds -->
<circle cx="15" cy="20" r="6" fill="#FFFFFF"/>
<circle cx="20" cy="20" r="8" fill="#FFFFFF"/>
<circle cx="25" cy="20" r="5" fill="#FFFFFF"/>
<circle cx="80" cy="15" r="5" fill="#FFFFFF"/>
<circle cx="85" cy="15" r="7" fill="#FFFFFF"/>
<circle cx="90" cy="15" r="4" fill="#FFFFFF"/>
</svg>
