<svg width="100" height="100" viewBox="0 0 100 100" fill="none" xmlns="http://www.w3.org/2000/svg">
<!-- Background -->
<circle cx="50" cy="50" r="50" fill="#32CD32"/>
<!-- Hair -->
<path d="M25 35 Q50 20 75 35 Q75 25 50 15 Q25 25 25 35" fill="#8B4513"/>
<!-- Face -->
<circle cx="50" cy="50" r="35" fill="#FDBCB4"/>
<!-- Eyes -->
<circle cx="40" cy="45" r="4" fill="#000000"/>
<circle cx="60" cy="45" r="4" fill="#000000"/>
<circle cx="40" cy="44" r="2" fill="#FFFFFF"/>
<circle cx="60" cy="44" r="2" fill="#FFFFFF"/>
<!-- Eyebrows -->
<path d="M35 38 Q40 35 45 38" stroke="#8B4513" stroke-width="2" fill="none"/>
<path d="M55 38 Q60 35 65 38" stroke="#8B4513" stroke-width="2" fill="none"/>
<!-- Nose -->
<ellipse cx="50" cy="52" rx="2" ry="3" fill="#E6A8A8"/>
<!-- Mouth -->
<path d="M45 58 Q50 62 55 58" stroke="#8B0000" stroke-width="2" fill="none"/>
<!-- Phone -->
<rect x="65" y="65" width="8" height="12" fill="#2F4F4F" rx="2"/>
<rect x="66" y="67" width="6" height="8" fill="#000000"/>
<!-- House -->
<rect x="25" y="60" width="20" height="15" fill="#DEB887"/>
<path d="M20 60 L35 50 L50 60 Z" fill="#8B4513"/>
<!-- Aurora -->
<path d="M10 20 Q30 10 50 15 Q70 5 90 12" stroke="#FF69B4" stroke-width="2" fill="none" opacity="0.7"/>
<path d="M5 25 Q25 18 45 22 Q65 16 95 20" stroke="#9370DB" stroke-width="2" fill="none" opacity="0.7"/>
</svg>
